<svg width="153" height="45" viewBox="0 0 153 45" fill="none" xmlns="http://www.w3.org/2000/svg">
<path d="M13.9753 -2.28882e-05V40.8611L37.5651 -2.28882e-05H13.9753Z" fill="white"/>
<path d="M15.7632 41.8682L51.1478 21.4653L39.3529 1.00509L15.7632 41.8682Z" fill="white"/>
<path d="M11.9059 1.78799L0 22.3592L11.9059 42.9304V1.78799Z" fill="white"/>
<path d="M64.5084 44.7183L52.1546 23.2532L14.9819 44.7183H38.6829H64.5084Z" fill="white"/>
<path d="M78.4835 20.0662C76.3033 20.0662 74.5155 19.2279 73.1163 17.5511C71.719 15.8743 70.9916 13.3037 70.9916 9.83706C70.9916 6.7073 71.719 4.30326 73.1716 2.57115C74.6245 0.838835 76.4141 0.000108719 78.4815 0.000108719C80.1583 0.000108719 81.6113 0.614563 82.7864 1.78992C83.9598 2.96309 84.7426 4.47354 85.0224 6.37417L82.7311 6.76479C82.5071 5.36735 82.0609 4.24948 81.3337 3.41097C80.6064 2.57269 79.6569 2.12458 78.4265 2.12458C76.916 2.12458 75.7428 2.79455 74.7933 4.08095C73.8439 5.36713 73.3961 7.26798 73.3961 9.83837C73.3961 12.4667 73.8439 14.4784 74.7933 15.8758C75.7428 17.273 76.918 17.945 78.4265 17.945C79.7682 17.945 80.886 17.4416 81.669 16.4347C82.5071 15.4279 82.8979 14.0305 82.842 12.3539H77.9783V10.2845H85.1352V12.1854C85.1352 14.6449 84.5209 16.6013 83.2343 18.054C82.0609 19.3387 80.4399 20.0662 78.4835 20.0662Z" fill="white"/>
<path d="M92.9619 9.72408H96.5949C97.8813 9.72408 98.9434 9.44473 99.7246 8.83027C100.508 8.27134 100.898 7.31982 100.898 6.03539C100.898 3.63113 99.445 2.40244 96.5376 2.40244H92.9599L92.9619 9.72408ZM90.6132 19.6738V0.333269H96.7061C98.7178 0.333269 100.339 0.836681 101.457 1.78623C102.63 2.73557 103.189 4.1905 103.189 6.03386C103.189 7.59939 102.741 8.8283 101.903 9.7796C101.009 10.7292 99.891 11.2901 98.4362 11.5694L102.741 19.6183H100.17L95.9784 11.736H92.9597V19.6183C92.9619 19.6738 90.6132 19.6738 90.6132 19.6738Z" fill="white"/>
<path d="M118.118 13.8604L114.875 3.40726H114.82L111.466 13.8604H118.118ZM120.074 19.6736L118.787 15.8721H110.85L109.676 19.6736H107.272L113.644 0.388548H116.048L122.421 19.6736H120.074Z" fill="white"/>
<path d="M130.527 19.6738V11.5674L124.155 0.386826H126.725L131.645 9.33172H131.7L136.62 0.386826H139.19L132.818 11.5674V19.6738H130.527Z" fill="white"/>
<path d="M94.4322 38.9049L91.1896 28.4517H91.1341L87.7805 38.9049H94.4322ZM96.3885 44.7183L95.1021 40.9168H87.1641L85.9907 44.7183H83.5864L89.959 25.4332H92.363L98.7353 44.7183H96.3885Z" fill="white"/>
<path d="M106.282 34.7685H109.916C111.202 34.7685 112.264 34.4892 113.045 33.8747C113.828 33.3158 114.219 32.3643 114.219 31.0798C114.219 28.6756 112.766 27.4469 109.858 27.4469H106.281C106.282 27.4451 106.282 34.7685 106.282 34.7685ZM103.936 44.7183V25.3777H110.028C112.04 25.3777 113.661 25.8811 114.779 26.8307C115.953 27.78 116.511 29.2349 116.511 31.0783C116.511 32.6438 116.064 33.8727 115.225 34.824C114.331 35.7736 113.213 36.3345 111.759 36.6138L116.064 44.6625H113.493L109.301 36.7804H106.282V44.6625C106.227 44.7183 103.936 44.7183 103.936 44.7183Z" fill="white"/>
<path d="M122.269 44.7183V25.3777H133.674V27.4469H124.618V33.7081H132.891V35.7775H124.618V42.5975H133.674V44.6667C133.674 44.7183 122.269 44.7183 122.269 44.7183Z" fill="white"/>
<path d="M148.153 38.9049L144.91 28.4517H144.855L141.501 38.9049H148.153ZM150.109 44.7183L148.822 40.9168H140.884L139.711 44.7183H137.307L143.679 25.4332H146.083L152.455 44.7183H150.109Z" fill="white"/>
</svg>
